<?xml version="1.0" standalone="no"?>
<!DOCTYPE svg PUBLIC "-//W3C//DTD SVG 20010904//EN"
 "http://www.w3.org/TR/2001/REC-SVG-20010904/DTD/svg10.dtd">
<svg version="1.0" xmlns="http://www.w3.org/2000/svg"
 width="612.000000pt" height="612.000000pt" viewBox="0 0 612.000000 612.000000"
 preserveAspectRatio="xMidYMid meet">
<metadata>
Created by potrace 1.14, written by Peter Selinger 2001-2017
</metadata>
<g transform="translate(0.000000,612.000000) scale(0.100000,-0.100000)"
fill="#000000" stroke="none">
<path d="M4145 5605 c-584 -87 -1119 -567 -1521 -1366 -46 -91 -84 -172 -84
-178 0 -7 -7 -11 -16 -9 -10 2 -36 46 -64 108 -134 297 -309 497 -516 591
-488 222 -1051 -218 -1103 -861 -19 -233 28 -462 144 -697 136 -274 324 -490
610 -700 135 -99 351 -217 497 -273 65 -24 73 -25 75 -2 1 12 -30 33 -114 76
-666 344 -1050 926 -1002 1524 19 248 107 442 278 612 86 86 165 140 254 178
49 20 80 25 148 26 79 1 90 -2 160 -36 131 -65 237 -191 339 -403 97 -201 180
-493 180 -634 0 -99 16 -156 52 -186 41 -35 92 -34 115 1 20 31 21 70 9 304
l-9 155 41 100 c112 280 242 500 441 748 254 315 551 552 851 679 125 52 201
70 336 75 101 4 134 2 205 -16 209 -53 365 -174 452 -351 67 -136 88 -225 94
-405 6 -166 -4 -268 -43 -440 -123 -541 -475 -1143 -1064 -1820 -106 -122
-662 -685 -676 -685 -3 0 -41 -30 -83 -68 -315 -279 -822 -655 -1062 -785
-120 -66 -315 -142 -455 -177 -151 -39 -171 -47 -177 -72 -14 -51 20 -68 135
-68 183 0 451 86 793 255 425 209 784 446 1209 797 183 151 605 566 751 738
213 252 399 514 547 775 143 251 233 449 309 680 64 193 84 286 105 475 15
134 16 173 5 291 -29 333 -129 567 -326 765 -158 160 -329 243 -574 279 -120
17 -126 17 -246 0z"/>
<path d="M2917 2935 c-117 -31 -220 -81 -314 -153 -202 -155 -347 -366 -408
-592 -33 -123 -35 -276 -5 -371 33 -108 114 -210 200 -254 56 -28 215 -69 244
-62 11 3 63 14 114 26 58 13 131 39 190 68 144 70 362 241 362 284 0 31 -21
23 -114 -42 -170 -118 -244 -151 -381 -168 -169 -20 -314 72 -369 233 -23 67
-20 197 6 222 10 11 64 25 150 39 238 41 336 70 483 143 153 76 276 187 321
289 30 67 40 149 25 196 -18 54 -109 132 -175 151 -81 24 -222 20 -329 -9z
m234 -68 c93 -62 90 -178 -9 -324 -69 -101 -182 -187 -327 -245 -92 -38 -268
-80 -317 -76 -39 3 -43 6 -46 31 -2 16 1 34 6 40 5 7 17 37 27 67 31 97 93
209 165 299 65 82 224 195 310 222 14 4 55 8 91 8 53 1 73 -4 100 -22z"/>
</g>
</svg>
